<mxfile host="app.diagrams.net" modified="2023-10-13T15:16:38.137Z" agent="Mozilla/5.0 (Macintosh; Intel Mac OS X 10_15_7) AppleWebKit/605.1.15 (KHTML, like Gecko) Version/16.6 Safari/605.1.15" etag="liDxWYqUrUwwoPw1yr7T" version="22.0.4" type="github">
  <diagram name="Pagina-1" id="pLeTV3SMVm0aGeCwJbRF">
    <mxGraphModel dx="1434" dy="827" grid="1" gridSize="10" guides="1" tooltips="1" connect="1" arrows="1" fold="1" page="1" pageScale="1" pageWidth="827" pageHeight="1169" math="0" shadow="0">
      <root>
        <mxCell id="0" />
        <mxCell id="1" parent="0" />
        <mxCell id="EDHjUQZg-11vU3VLEDfD-15" style="edgeStyle=orthogonalEdgeStyle;rounded=0;orthogonalLoop=1;jettySize=auto;html=1;exitX=0.5;exitY=1;exitDx=0;exitDy=0;entryX=0.5;entryY=0;entryDx=0;entryDy=0;endArrow=none;endFill=0;startArrow=block;startFill=0;" parent="1" source="EDHjUQZg-11vU3VLEDfD-5" target="EDHjUQZg-11vU3VLEDfD-7" edge="1">
          <mxGeometry relative="1" as="geometry" />
        </mxCell>
        <mxCell id="EDHjUQZg-11vU3VLEDfD-16" style="edgeStyle=orthogonalEdgeStyle;rounded=0;orthogonalLoop=1;jettySize=auto;html=1;exitX=0.5;exitY=1;exitDx=0;exitDy=0;entryX=0.5;entryY=0;entryDx=0;entryDy=0;startArrow=none;startFill=0;endArrow=none;endFill=0;" parent="1" source="EDHjUQZg-11vU3VLEDfD-5" target="EDHjUQZg-11vU3VLEDfD-8" edge="1">
          <mxGeometry relative="1" as="geometry" />
        </mxCell>
        <mxCell id="EDHjUQZg-11vU3VLEDfD-5" value="«interface»&lt;br&gt;ModelObserver" style="html=1;whiteSpace=wrap;" parent="1" vertex="1">
          <mxGeometry x="310" y="70" width="110" height="50" as="geometry" />
        </mxCell>
        <mxCell id="EDHjUQZg-11vU3VLEDfD-7" value="«server»&lt;br&gt;&lt;b&gt;MQTT&lt;/b&gt;" style="html=1;whiteSpace=wrap;" parent="1" vertex="1">
          <mxGeometry x="200" y="160" width="110" height="50" as="geometry" />
        </mxCell>
        <mxCell id="EDHjUQZg-11vU3VLEDfD-8" value="«server»&lt;br&gt;&lt;b&gt;Socket&lt;/b&gt;" style="html=1;whiteSpace=wrap;" parent="1" vertex="1">
          <mxGeometry x="441" y="160" width="110" height="50" as="geometry" />
        </mxCell>
        <mxCell id="EDHjUQZg-11vU3VLEDfD-9" value="«server»&lt;br&gt;&lt;b&gt;Web&lt;/b&gt;" style="html=1;whiteSpace=wrap;" parent="1" vertex="1">
          <mxGeometry x="441" y="560" width="110" height="50" as="geometry" />
        </mxCell>
        <mxCell id="EDHjUQZg-11vU3VLEDfD-10" value="«client»&lt;br&gt;&lt;b&gt;Web&lt;/b&gt;" style="html=1;whiteSpace=wrap;" parent="1" vertex="1">
          <mxGeometry x="441" y="390" width="110" height="50" as="geometry" />
        </mxCell>
        <mxCell id="EDHjUQZg-11vU3VLEDfD-11" value="«client»&lt;br&gt;&lt;b&gt;MQTT&lt;/b&gt;" style="html=1;whiteSpace=wrap;" parent="1" vertex="1">
          <mxGeometry x="200" y="360" width="110" height="50" as="geometry" />
        </mxCell>
        <mxCell id="R_ttYGleP67SlV4bIJNO-2" value="&lt;font style=&quot;font-size: 14px;&quot;&gt;Il WebServer è stato implementato con le socket di java. Il WebSocket per la comunicazione con il WebServer è stato implementato con libreria socket.io.&lt;br&gt;Il WebSocket invia un messaggio al WebServer ogni volta che il ModelInterface rileva un cambiamento nel Model&lt;/font&gt;" style="text;html=1;strokeColor=none;fillColor=none;align=left;verticalAlign=middle;whiteSpace=wrap;rounded=0;" vertex="1" parent="1">
          <mxGeometry x="40" y="650" width="740" height="90" as="geometry" />
        </mxCell>
        <mxCell id="R_ttYGleP67SlV4bIJNO-15" value="" style="rounded=0;orthogonalLoop=1;jettySize=auto;html=1;endArrow=halfCircle;endFill=0;endSize=6;strokeWidth=1;sketch=0;startArrow=box;startFill=0;" edge="1" target="R_ttYGleP67SlV4bIJNO-17" parent="1" source="EDHjUQZg-11vU3VLEDfD-11">
          <mxGeometry relative="1" as="geometry">
            <mxPoint x="255" y="310" as="sourcePoint" />
          </mxGeometry>
        </mxCell>
        <mxCell id="R_ttYGleP67SlV4bIJNO-16" value="" style="rounded=0;orthogonalLoop=1;jettySize=auto;html=1;endArrow=oval;endFill=0;sketch=0;sourcePerimeterSpacing=0;targetPerimeterSpacing=0;endSize=10;exitX=0.5;exitY=1;exitDx=0;exitDy=0;startArrow=box;startFill=0;" edge="1" target="R_ttYGleP67SlV4bIJNO-17" parent="1" source="EDHjUQZg-11vU3VLEDfD-7">
          <mxGeometry relative="1" as="geometry">
            <mxPoint x="255" y="260" as="sourcePoint" />
          </mxGeometry>
        </mxCell>
        <mxCell id="R_ttYGleP67SlV4bIJNO-17" value="" style="ellipse;whiteSpace=wrap;html=1;align=center;aspect=fixed;fillColor=none;strokeColor=none;resizable=0;perimeter=centerPerimeter;rotatable=0;allowArrows=0;points=[];outlineConnect=1;" vertex="1" parent="1">
          <mxGeometry x="250" y="280" width="10" height="10" as="geometry" />
        </mxCell>
        <mxCell id="R_ttYGleP67SlV4bIJNO-19" value="" style="rounded=0;orthogonalLoop=1;jettySize=auto;html=1;endArrow=halfCircle;endFill=0;endSize=6;strokeWidth=1;sketch=0;startArrow=box;startFill=0;exitX=0.5;exitY=0;exitDx=0;exitDy=0;" edge="1" parent="1" target="R_ttYGleP67SlV4bIJNO-21" source="EDHjUQZg-11vU3VLEDfD-10">
          <mxGeometry relative="1" as="geometry">
            <mxPoint x="496" y="370" as="sourcePoint" />
          </mxGeometry>
        </mxCell>
        <mxCell id="R_ttYGleP67SlV4bIJNO-20" value="" style="rounded=0;orthogonalLoop=1;jettySize=auto;html=1;endArrow=oval;endFill=0;sketch=0;sourcePerimeterSpacing=0;targetPerimeterSpacing=0;endSize=10;exitX=0.5;exitY=1;exitDx=0;exitDy=0;startArrow=box;startFill=0;" edge="1" parent="1" target="R_ttYGleP67SlV4bIJNO-21" source="EDHjUQZg-11vU3VLEDfD-8">
          <mxGeometry relative="1" as="geometry">
            <mxPoint x="496" y="220" as="sourcePoint" />
          </mxGeometry>
        </mxCell>
        <mxCell id="R_ttYGleP67SlV4bIJNO-21" value="" style="ellipse;whiteSpace=wrap;html=1;align=center;aspect=fixed;fillColor=none;strokeColor=none;resizable=0;perimeter=centerPerimeter;rotatable=0;allowArrows=0;points=[];outlineConnect=1;" vertex="1" parent="1">
          <mxGeometry x="491" y="290" width="10" height="10" as="geometry" />
        </mxCell>
        <mxCell id="R_ttYGleP67SlV4bIJNO-24" value="" style="ellipse;whiteSpace=wrap;html=1;align=center;aspect=fixed;fillColor=none;strokeColor=none;resizable=0;perimeter=centerPerimeter;rotatable=0;allowArrows=0;points=[];outlineConnect=1;" vertex="1" parent="1">
          <mxGeometry x="691" y="360" width="10" height="10" as="geometry" />
        </mxCell>
        <mxCell id="R_ttYGleP67SlV4bIJNO-25" value="" style="rounded=0;orthogonalLoop=1;jettySize=auto;html=1;endArrow=halfCircle;endFill=0;endSize=6;strokeWidth=1;sketch=0;startArrow=box;startFill=0;exitX=0.5;exitY=0;exitDx=0;exitDy=0;" edge="1" parent="1" source="EDHjUQZg-11vU3VLEDfD-9">
          <mxGeometry relative="1" as="geometry">
            <mxPoint x="495.5" y="580" as="sourcePoint" />
            <mxPoint x="495.5" y="515" as="targetPoint" />
          </mxGeometry>
        </mxCell>
        <mxCell id="R_ttYGleP67SlV4bIJNO-26" value="" style="rounded=0;orthogonalLoop=1;jettySize=auto;html=1;endArrow=oval;endFill=0;sketch=0;sourcePerimeterSpacing=0;targetPerimeterSpacing=0;endSize=10;exitX=0.5;exitY=1;exitDx=0;exitDy=0;startArrow=box;startFill=0;" edge="1" parent="1" source="EDHjUQZg-11vU3VLEDfD-10">
          <mxGeometry relative="1" as="geometry">
            <mxPoint x="495.5" y="430" as="sourcePoint" />
            <mxPoint x="495.5" y="515" as="targetPoint" />
          </mxGeometry>
        </mxCell>
      </root>
    </mxGraphModel>
  </diagram>
</mxfile>
